<?xml version="1.0" encoding="UTF-8"?>
<svg version="1.1" xmlns="http://www.w3.org/2000/svg" width="512" height="512">
<path d="M0 0 C2.76261396 -0.00405026 5.525187 -0.01553032 8.28778076 -0.02655029 C14.95019576 -0.0485483 21.61232595 -0.04408788 28.27475119 -0.02948709 C33.69924307 -0.01810103 39.12365627 -0.01670389 44.54815674 -0.02210617 C45.32617822 -0.02287234 46.10419971 -0.0236385 46.9057976 -0.02442788 C48.48733125 -0.02602684 50.06886488 -0.02764791 51.65039849 -0.02929084 C66.41017712 -0.04347965 81.16979936 -0.02726431 95.92955232 -0.00028901 C108.5383995 0.02204351 121.14701634 0.01816143 133.75585938 -0.00488281 C148.47012545 -0.03176318 163.18425519 -0.042107 177.8985424 -0.02682149 C179.473601 -0.02522909 181.04865962 -0.02365723 182.62371826 -0.02210617 C183.39826878 -0.02133479 184.1728193 -0.02056342 184.97084105 -0.01976866 C190.37604135 -0.01548816 195.78115367 -0.0226584 201.18634033 -0.03450394 C207.79181727 -0.04866457 214.396998 -0.04444929 221.00244188 -0.01810022 C224.35970171 -0.00514058 227.71607334 -0.00228 231.07338715 -0.01634598 C270.92119422 -0.16774618 305.04986081 11.29735816 333.8359375 39.45947266 C356.6130762 62.51355981 369.73870506 94.78485887 369.73310852 127.0599823 C369.73678521 128.20341372 369.7404619 129.34684515 369.74425 130.52492601 C369.75525634 134.35361736 369.75912557 138.18228154 369.76293945 142.01098633 C369.76867781 144.75786062 369.77584133 147.50473088 369.78285217 150.25160217 C369.8025719 158.4935673 369.81267857 166.73553357 369.82157996 174.97751638 C369.82597156 178.867568 369.83133622 182.75761828 369.83656883 186.64766884 C369.85357911 199.59522691 369.86806943 212.54278416 369.87531757 225.49035168 C369.87722719 228.84683928 369.87914756 232.20332688 369.88110352 235.55981445 C369.88158726 236.3939631 369.882071 237.22811175 369.8825694 238.08753762 C369.89085532 251.57573118 369.91616876 265.06383563 369.94868419 278.55199035 C369.98186129 292.42886257 369.99977604 306.30568969 370.00296181 320.18260175 C370.00511744 327.9621501 370.01372575 335.74156866 370.03942299 343.52107811 C370.06127634 350.15190141 370.06910947 356.78256338 370.05945621 363.41341861 C370.05495282 366.78821439 370.05880565 370.16241212 370.07621765 373.53720474 C370.27572502 414.53008803 358.1917485 448.01394237 329.7734375 477.83447266 C306.55865829 500.4624644 274.28216067 512.81385003 242.1084137 512.78741455 C240.97017826 512.79038567 239.83194281 512.7933568 238.65921539 512.79641795 C234.85426434 512.80507284 231.04934487 512.8066105 227.24438477 512.80810547 C224.51220008 512.81220087 221.78001866 512.8177408 219.0478363 512.82315063 C211.63005141 512.83669822 204.21227195 512.84275338 196.79447675 512.84716129 C192.15562085 512.84993035 187.51676702 512.85416895 182.87791252 512.85866547 C170.01437416 512.87085456 157.15083744 512.88115387 144.28729343 512.88454056 C143.05373299 512.88486991 143.05373299 512.88486991 141.79525214 512.88520591 C140.97099431 512.88542419 140.14673648 512.88564247 139.29750115 512.88586736 C137.62745194 512.88631081 135.95740273 512.88675737 134.28735352 512.88720703 C133.45896467 512.88742846 132.63057582 512.88764989 131.77708428 512.88787803 C118.37100992 512.89182135 104.96499006 512.90926272 91.55893672 512.93256655 C77.76905789 512.95634245 63.97920632 512.96874528 50.18930668 512.96990848 C42.45740248 512.97082185 34.72556928 512.97648846 26.99368477 512.99472809 C20.40636839 513.0102137 13.81914495 513.01520019 7.2318138 513.00698999 C3.87772381 513.00311281 0.52397091 513.00553683 -2.83012009 513.01804733 C-32.74585067 513.12302453 -61.47637494 508.258752 -86.4140625 490.64697266 C-87.36539063 489.99212891 -88.31671875 489.33728516 -89.296875 488.66259766 C-110.29197422 473.642605 -126.01373706 452.45882319 -135.2265625 428.39697266 C-135.49243164 427.72053711 -135.75830078 427.04410156 -136.03222656 426.34716797 C-142.57759566 408.19303104 -142.99102284 389.74667694 -142.91577148 370.66772461 C-142.91735484 367.90420453 -142.92491858 365.14070758 -142.93214417 362.37719727 C-142.94596015 355.69922848 -142.93860829 349.02145088 -142.92346858 342.34349147 C-142.90646943 334.54378622 -142.90983599 326.74412676 -142.91356266 318.94440868 C-142.91941961 305.01669317 -142.90535366 291.08906852 -142.88061523 277.16137695 C-142.856687 263.68803505 -142.84961918 250.21481442 -142.86010742 236.74145508 C-142.87154894 222.01741678 -142.87340795 207.29343434 -142.85900933 192.56939667 C-142.85748371 190.99580555 -142.85596335 189.42221441 -142.85444832 187.84862328 C-142.8536905 187.07467193 -142.85293269 186.30072058 -142.85215191 185.50331617 C-142.8474351 180.0833771 -142.8492418 174.66346321 -142.85351372 169.24352455 C-142.85846985 162.62903013 -142.85232563 156.01464971 -142.83261942 149.40018121 C-142.82283306 146.03387319 -142.81918656 142.66788001 -142.82551193 139.30154228 C-142.85351759 122.25036366 -142.45485826 105.85106821 -136.7265625 89.58447266 C-136.47382568 88.84898193 -136.22108887 88.11349121 -135.96069336 87.35571289 C-126.145616 59.81626379 -107.91073185 36.51396867 -83.4140625 20.64697266 C-81.98707031 19.71111328 -81.98707031 19.71111328 -80.53125 18.75634766 C-55.46761924 3.25738936 -28.9634063 -0.12134659 0 0 Z " fill="#111828" transform="translate(142.4140625,-0.64697265625)"/>
<path d="M0 0 C2.44551453 0.56486917 4.89906041 1.04402893 7.36425781 1.51513672 C11.81180077 2.39284491 16.10320633 3.53801834 20.42285156 4.90576172 C21.07382812 5.10169922 21.72480469 5.29763672 22.39550781 5.49951172 C26.58845735 6.81136524 30.41745967 8.48674084 34.31542969 10.50878906 C36.23111766 11.49635924 38.16594314 12.41549158 40.12207031 13.31982422 C49.50018456 17.73771274 57.29225662 22.98475039 65.29785156 29.53076172 C66.70807492 30.58113498 68.12382305 31.62418201 69.54785156 32.65576172 C76.92796437 38.18696206 83.52743723 44.3375055 89.29785156 51.53076172 C89.72437012 52.06137207 90.15088867 52.59198242 90.59033203 53.13867188 C106.130412 72.65846337 119.0134129 95.24863487 125.29785156 119.53076172 C125.55042725 120.48958252 125.55042725 120.48958252 125.80810547 121.46777344 C130.85890907 140.7082782 132.65616447 158.6520189 132.29785156 178.53076172 C132.2852832 179.26407715 132.27271484 179.99739258 132.25976562 180.75292969 C132.02284332 190.92850114 130.27556819 200.39308096 127.859375 210.22558594 C127.27963004 212.60556504 126.72687769 214.99053328 126.18066406 217.37841797 C125.82420327 218.92927051 125.46744305 220.48005427 125.11035156 222.03076172 C124.86031372 223.11732056 124.86031372 223.11732056 124.60522461 224.22583008 C123.41346323 229.29953838 123.41346323 229.29953838 122.29785156 231.53076172 C121.71403196 234.44568722 121.71403196 234.44568722 122.29785156 237.53076172 C124.34936911 239.31234275 125.92395239 240.31084131 128.29785156 241.53076172 C129.07128906 241.97806641 129.84472656 242.42537109 130.64160156 242.88623047 C136.16990021 245.93191352 139.9988558 247.11400207 146.29785156 246.53076172 C146.47960937 245.96228516 146.66136719 245.39380859 146.84863281 244.80810547 C148.06383328 241.07525889 149.29553149 237.41855606 150.92285156 233.84326172 C152.23531034 230.68142921 152.88507956 227.91549218 153.29785156 224.53076172 C151.64785156 224.53076172 149.99785156 224.53076172 148.29785156 224.53076172 C151.29785156 222.53076172 151.29785156 222.53076172 153.29785156 222.34326172 C155.65295006 221.62842818 155.65295006 221.62842818 156.98535156 218.53076172 C158.61441615 214.2721744 158.94977899 210.05570522 159.29785156 205.53076172 C154.34785156 205.20076172 149.39785156 204.87076172 144.29785156 204.53076172 C144.29785156 204.20076172 144.29785156 203.87076172 144.29785156 203.53076172 C145.34585937 203.51658203 146.39386719 203.50240234 147.47363281 203.48779297 C148.85258299 203.4408899 150.23148789 203.39264251 151.61035156 203.34326172 C152.64579102 203.33456055 152.64579102 203.33456055 153.70214844 203.32568359 C155.99948416 203.27685714 155.99948416 203.27685714 159.29785156 202.53076172 C162.40145464 199.07675184 162.73621944 195.75246636 162.98535156 191.21826172 C163.08396484 189.6153125 163.08396484 189.6153125 163.18457031 187.97998047 C163.22195313 187.17173828 163.25933594 186.36349609 163.29785156 185.53076172 C160.32785156 185.20076172 157.35785156 184.87076172 154.29785156 184.53076172 C154.29785156 184.20076172 154.29785156 183.87076172 154.29785156 183.53076172 C157.37402344 183.23779297 157.37402344 183.23779297 160.45019531 182.94482422 C161.05992187 182.80818359 161.66964844 182.67154297 162.29785156 182.53076172 C163.65066528 179.82513429 163.50394519 177.61182517 163.54785156 174.59326172 C163.57363281 173.53236328 163.59941406 172.47146484 163.62597656 171.37841797 C163.53710315 168.53880881 163.53710315 168.53880881 161.95019531 166.69482422 C159.8074315 165.18526484 157.87019856 164.87837618 155.29785156 164.53076172 C157.29785156 163.53076172 159.29785156 162.53076172 161.29785156 161.53076172 C161.29785156 156.58076172 161.29785156 151.63076172 161.29785156 146.53076172 C158.65785156 145.87076172 156.01785156 145.21076172 153.29785156 144.53076172 C155.94524073 143.07013321 157.19233491 142.53076172 160.29785156 142.53076172 C159.99047495 140.05085916 159.67721073 137.57195437 159.36035156 135.09326172 C159.27333984 134.38621094 159.18632812 133.67916016 159.09667969 132.95068359 C158.91568966 129.44258203 158.91568966 129.44258203 157.29785156 126.53076172 C155.61601209 126.29789164 153.92660996 126.11812006 152.23535156 125.96826172 C151.31625 125.88447266 150.39714844 125.80068359 149.45019531 125.71435547 C148.73992187 125.65376953 148.02964844 125.59318359 147.29785156 125.53076172 C147.29785156 124.87076172 147.29785156 124.21076172 147.29785156 123.53076172 C149.93785156 123.20076172 152.57785156 122.87076172 155.29785156 122.53076172 C154.40937305 113.87758923 154.40937305 113.87758923 150.29785156 106.53076172 C148.66528399 106.37361518 147.02649818 106.27990758 145.38769531 106.21435547 C144.39833984 106.17246094 143.40898437 106.13056641 142.38964844 106.08740234 C141.34873047 106.04808594 140.3078125 106.00876953 139.23535156 105.96826172 C137.66817383 105.90348633 137.66817383 105.90348633 136.06933594 105.83740234 C133.47898272 105.73094947 130.88852971 105.62893412 128.29785156 105.53076172 C128.29785156 105.20076172 128.29785156 104.87076172 128.29785156 104.53076172 C129.26207031 104.48177734 130.22628906 104.43279297 131.21972656 104.38232422 C133.11464844 104.27017578 133.11464844 104.27017578 135.04785156 104.15576172 C136.92730469 104.05134766 136.92730469 104.05134766 138.84472656 103.94482422 C141.90783277 103.57752868 143.71759422 103.13364886 146.29785156 101.53076172 C145.73591138 96.02374798 144.58644964 92.87082391 142.29785156 87.53076172 C128.43785156 86.54076172 128.43785156 86.54076172 114.29785156 85.53076172 C114.29785156 85.20076172 114.29785156 84.87076172 114.29785156 84.53076172 C122.21785156 84.53076172 130.13785156 84.53076172 138.29785156 84.53076172 C138.34947527 78.19752977 138.34947527 78.19752977 134.86035156 73.71826172 C134.22226562 72.94869141 133.58417969 72.17912109 132.92675781 71.38623047 C131.12597305 69.04679666 131.12597305 69.04679666 128.53198242 68.32543945 C127.78311768 68.28878174 127.03425293 68.25212402 126.26269531 68.21435547 C125.45380859 68.17246094 124.64492188 68.13056641 123.81152344 68.08740234 C122.96138672 68.04808594 122.11125 68.00876953 121.23535156 67.96826172 C119.9543457 67.90348633 119.9543457 67.90348633 118.64746094 67.83740234 C116.53113119 67.7309947 114.41451343 67.63034441 112.29785156 67.53076172 C112.29785156 67.20076172 112.29785156 66.87076172 112.29785156 66.53076172 C119.22785156 65.54076172 119.22785156 65.54076172 126.29785156 64.53076172 C125.28979542 60.49853716 124.55522879 59.35275844 121.86035156 56.40576172 C121.24289062 55.72255859 120.62542969 55.03935547 119.98925781 54.33544922 C116.3787011 50.48307693 114.47958572 50.08116425 109.17285156 49.40576172 C107.89152344 49.23818359 106.61019531 49.07060547 105.29003906 48.89794922 C103.80890625 48.71619141 103.80890625 48.71619141 102.29785156 48.53076172 C102.29785156 48.20076172 102.29785156 47.87076172 102.29785156 47.53076172 C107.24785156 47.03576172 107.24785156 47.03576172 112.29785156 46.53076172 C110.35842357 44.10647672 108.39914353 41.80982025 106.29785156 39.53076172 C105.77578125 38.94810547 105.25371094 38.36544922 104.71582031 37.76513672 C98.20995378 31.71453399 89.6824011 32.54981751 81.29785156 32.53076172 C81.29785156 32.20076172 81.29785156 31.87076172 81.29785156 31.53076172 C84.26785156 30.87076172 87.23785156 30.21076172 90.29785156 29.53076172 C90.29785156 28.87076172 90.29785156 28.21076172 90.29785156 27.53076172 C82.14877914 21.12887176 74.69688345 18.2115494 64.29785156 17.53076172 C66.27785156 16.04576172 66.27785156 16.04576172 68.29785156 14.53076172 C65.4266764 13.37517899 62.55031227 12.23309305 59.67285156 11.09326172 C58.86460937 10.76777344 58.05636719 10.44228516 57.22363281 10.10693359 C52.91635942 8.40853718 48.93463605 7.06346673 44.29785156 6.53076172 C44.29785156 5.87076172 44.29785156 5.21076172 44.29785156 4.53076172 C43.09128906 4.26521484 41.88472656 3.99966797 40.64160156 3.72607422 C39.02700547 3.36936113 37.41242286 3.01258704 35.79785156 2.65576172 C35.00636719 2.48173828 34.21488281 2.30771484 33.39941406 2.12841797 C28.34314223 1.00940699 23.31642976 -0.19157273 18.29785156 -1.46923828 C18.29785156 -1.79923828 18.29785156 -2.12923828 18.29785156 -2.46923828 C40.43612433 -1.40489824 63.06065457 7.997719 82.29785156 18.53076172 C82.29785156 19.19076172 82.29785156 19.85076172 82.29785156 20.53076172 C83.02875 20.79759766 83.75964844 21.06443359 84.51269531 21.33935547 C89.2414743 23.36218519 93.15200517 26.52196181 97.29785156 29.53076172 C98.1834375 30.13404297 99.06902344 30.73732422 99.98144531 31.35888672 C125.12844505 49.07688376 144.30810576 75.64578943 155.86035156 103.96826172 C156.15103516 104.66757813 156.44171875 105.36689453 156.74121094 106.08740234 C160.30412225 114.76751513 162.81741989 123.21455357 164.42285156 132.46826172 C164.59171875 133.39316406 164.76058594 134.31806641 164.93457031 135.27099609 C169.13916756 158.89288692 169.82279767 185.32090041 163.29785156 208.53076172 C162.91940003 209.99017766 162.54179661 211.4498138 162.16503906 212.90966797 C160.16695786 220.36598359 157.63405605 227.56584623 154.73535156 234.71826172 C154.31419067 235.7608313 154.31419067 235.7608313 153.88452148 236.82446289 C151.55255894 242.37091694 148.86864026 248.66096148 143.29785156 251.53076172 C138.7307773 251.02145362 134.62371369 249.17019039 130.42285156 247.40576172 C129.66673584 247.09010254 128.91062012 246.77444336 128.1315918 246.44921875 C112.7893906 239.98951379 97.99117581 232.43141844 83.12719727 224.95336914 C80.10524702 223.43391931 77.08000521 221.92117306 74.05395508 220.40991211 C72.35583778 219.5597911 70.66077102 218.70358503 68.96582031 217.84716797 C60.26593821 213.4630523 51.51196576 209.19664642 42.73535156 204.96826172 C41.63666748 204.4385376 40.5379834 203.90881348 39.40600586 203.36303711 C31.71232684 199.66449234 23.98692638 196.03686361 16.24655151 192.43746948 C12.91978998 190.88956545 9.59528216 189.33683445 6.27050781 187.78466797 C4.95215881 187.16941137 3.63379948 186.55417689 2.31542969 185.93896484 C-6.69335938 181.73486328 -6.69335938 181.73486328 -15.70214844 177.53076172 C-14.70214844 174.53076172 -14.70214844 174.53076172 -11.38574219 172.69873047 C-9.97325467 172.0324406 -8.55769564 171.3726357 -7.13964844 170.71826172 C6.3360094 164.1491375 15.18609748 155.80390777 20.96582031 141.62060547 C22.29785156 138.53076172 22.29785156 138.53076172 24.29785156 137.53076172 C26.60717679 137.32472527 28.9207154 137.1645281 31.23535156 137.03076172 C36.35594992 136.74925783 36.35594992 136.74925783 41.29785156 135.53076172 C42.40036886 133.36454304 42.40036886 133.36454304 43.29785156 130.53076172 C43.55824219 129.90427734 43.81863281 129.27779297 44.08691406 128.63232422 C45.80803694 124.43407122 46.64417364 121.14838944 46.29785156 116.53076172 C43.68032308 115.22199748 41.80638408 115.46993649 38.87988281 115.53076172 C37.78998047 115.52947266 36.70007813 115.52818359 35.57714844 115.52685547 C33.28523318 115.52943791 30.99312488 115.56277394 28.70214844 115.62841797 C20.45278773 115.54112315 20.45278773 115.54112315 17.09204102 112.60107422 C15.34737288 110.31390686 13.82125857 107.96864138 12.29785156 105.53076172 C9.99671895 103.21239825 9.99671895 103.21239825 7.86035156 101.53076172 C6.65972185 100.54656431 5.46751908 99.55156246 4.29785156 98.53076172 C4.29785156 98.20076172 4.29785156 97.87076172 4.29785156 97.53076172 C5.2963916 97.51094238 6.29493164 97.49112305 7.32373047 97.47070312 C11.04760888 97.39431907 14.77111317 97.30565372 18.49462891 97.21337891 C20.10262639 97.17522413 21.71070529 97.14034824 23.31884766 97.10888672 C25.63766473 97.06294112 27.95592776 97.00499791 30.27441406 96.94482422 C30.98715485 96.93327301 31.69989563 96.9217218 32.43423462 96.90982056 C36.7162536 96.78474582 40.37847027 96.30849443 44.29785156 94.53076172 C45.43862814 91.108432 45.39600273 88.44402954 45.36035156 84.84326172 C45.35132813 83.66376953 45.34230469 82.48427734 45.33300781 81.26904297 C45.32140625 80.36541016 45.30980469 79.46177734 45.29785156 78.53076172 C29.21670119 78.39057666 13.13574912 78.28478393 -2.94586468 78.21988869 C-10.41292945 78.18895519 -17.87961451 78.14678527 -25.34643555 78.078125 C-31.85483278 78.01830635 -38.36295502 77.97960886 -44.87161952 77.96623075 C-48.31782724 77.95841077 -51.76324827 77.94004542 -55.20920372 77.89638138 C-59.05685502 77.84802323 -62.90373795 77.84682346 -66.75170898 77.84960938 C-67.89322418 77.82803772 -69.03473938 77.80646606 -70.21084595 77.78424072 C-75.67324075 77.67423268 -75.67324075 77.67423268 -80.4922123 79.83636093 C-82.05880969 81.59630816 -82.05880969 81.59630816 -83.70214844 84.53076172 C-84.22421875 85.24361328 -84.74628906 85.95646484 -85.28417969 86.69091797 C-88.54197408 91.67121043 -88.54197408 91.67121043 -88.70214844 97.53076172 C-85.73655111 99.01356038 -83.00969393 98.71594643 -79.70214844 98.77685547 C-78.25113105 98.80796635 -76.80012218 98.8394758 -75.34912109 98.87133789 C-74.58948059 98.88667572 -73.82984009 98.90201355 -73.04718018 98.91781616 C-31.62590594 99.80885708 -31.62590594 99.80885708 -20.38183594 109.53857422 C-18.70214844 111.53076172 -18.70214844 111.53076172 -18.70214844 114.53076172 C-19.82515099 114.52956833 -19.82515099 114.52956833 -20.97084045 114.52835083 C-28.04749313 114.52613744 -35.12332885 114.55268166 -42.19970036 114.61104012 C-45.83732674 114.64003825 -49.4743115 114.65815072 -53.11206055 114.65087891 C-56.62685114 114.64426187 -60.14037654 114.66690129 -63.65490532 114.70931625 C-65.63942446 114.72578069 -67.62411909 114.71241891 -69.60865784 114.69851685 C-77.36520299 114.74548826 -77.36520299 114.74548826 -83.94262695 118.41430664 C-85.45209224 119.94284977 -85.45209224 119.94284977 -86.70214844 121.53076172 C-87.42144531 122.41119141 -88.14074219 123.29162109 -88.88183594 124.19873047 C-89.44128906 125.03017578 -90.00074219 125.86162109 -90.57714844 126.71826172 C-91.15207031 127.55744141 -91.72699219 128.39662109 -92.31933594 129.26123047 C-93.83631226 131.5606376 -93.83631226 131.5606376 -94.70214844 134.53076172 C-94.03912216 134.55359726 -93.37609589 134.5764328 -92.69297791 134.59996033 C-85.66612512 134.84218022 -78.63932408 135.08586361 -71.61254883 135.33032227 C-69.00513943 135.42085175 -66.39771791 135.51103259 -63.7902832 135.60083008 C-47.42361504 136.1647634 -31.06158943 136.78491496 -14.70214844 137.53076172 C-15.76202337 144.9960235 -19.06256448 148.62153777 -24.70214844 153.53076172 C-30.94780846 157.97258925 -39.0094116 163.14498565 -46.92431641 162.20410156 C-50.37099294 161.36863541 -53.28883359 159.99091381 -56.48730469 158.45654297 C-57.13965591 158.14597961 -57.79200714 157.83541626 -58.46412659 157.51544189 C-59.84688043 156.85702001 -61.22854886 156.19631441 -62.60919189 155.53347778 C-65.98485266 153.91623003 -69.37368283 152.32708147 -72.76074219 150.73388672 C-74.13721556 150.08466324 -75.5135979 149.43524673 -76.88989258 148.78564453 C-88.32177894 143.3918327 -99.75956457 138.01723679 -111.26464844 132.78076172 C-121.39700785 128.16527294 -131.44218065 123.38141938 -141.46386719 118.53076172 C-145.72087562 116.47310691 -149.9945499 114.45699182 -154.28417969 112.46826172 C-155.34113037 111.97455078 -156.39808105 111.48083984 -157.48706055 110.97216797 C-159.49827073 110.03401636 -161.51325037 109.10388996 -163.5324707 108.18310547 C-164.43151123 107.76158203 -165.33055176 107.34005859 -166.25683594 106.90576172 C-167.04558105 106.54224609 -167.83432617 106.17873047 -168.64697266 105.80419922 C-171.02711939 104.32940172 -172.25969774 102.92089415 -173.70214844 100.53076172 C-173.63094152 95.02409368 -170.92375476 90.69254644 -168.26464844 86.03076172 C-167.81871338 85.24048584 -167.37277832 84.45020996 -166.91333008 83.63598633 C-162.65480401 76.2215015 -157.89008951 69.31887942 -152.70214844 62.53076172 C-151.69667969 61.18884766 -151.69667969 61.18884766 -150.67089844 59.81982422 C-140.25705055 46.48208827 -127.70410774 34.05089087 -113.70214844 24.53076172 C-113.00927734 24.05832031 -112.31640625 23.58587891 -111.60253906 23.09912109 C-77.78719709 0.33148808 -40.34736943 -9.69635564 0 0 Z " fill="#02BBFB" transform="translate(265.7021484375,87.46923828125)"/>
<path d="M0 0 C8.28376788 0 14.7759857 3.41910488 22.01953125 7.01953125 C25.20230308 8.59522302 28.41044834 10.11540622 31.625 11.625 C32.24479736 11.91697266 32.86459473 12.20894531 33.50317383 12.50976562 C38.58757706 14.87479057 43.77571235 16.86182409 49.0234375 18.828125 C53.50797608 20.59369137 57.72892149 22.77704101 62 25 C64.39365727 26.21292947 66.78923911 27.42127397 69.1875 28.625 C70.31542969 29.19476563 71.44335938 29.76453125 72.60546875 30.3515625 C76.03018132 32.01465652 79.49919635 33.50443882 83 35 C86.22112717 36.47313395 89.42368528 37.98437756 92.625 39.5 C93.45773438 39.89058594 94.29046875 40.28117187 95.1484375 40.68359375 C99.22740426 42.61265924 103.18671892 44.57195164 107 47 C106.505 47.99 106.505 47.99 106 49 C104.03398268 49.47485544 102.05112797 49.88112252 100.0625 50.25 C95.21017232 51.20827614 95.21017232 51.20827614 92.1875 54.875 C91.89393721 59.7677132 92.17852606 62.035261 95.44140625 65.8671875 C96.47162511 66.880214 97.51239964 67.88259746 98.5625 68.875 C99.06330078 69.36613281 99.56410156 69.85726562 100.08007812 70.36328125 C102.93422705 73.13464906 105.87883387 75.77637477 108.890625 78.375 C113.18452149 82.10449125 117.19232333 86.08012257 121.1875 90.125 C121.87263672 90.81464844 122.55777344 91.50429688 123.26367188 92.21484375 C124.59241092 93.55253484 125.92016759 94.89120261 127.24682617 96.23095703 C128.66078435 97.65771388 130.07962807 99.07962807 131.5 100.5 C133.57498653 102.57498653 135.64227239 104.65704679 137.70703125 106.7421875 C139.0754682 108.11984395 140.44395897 109.49744694 141.8125 110.875 C142.48603516 111.55691406 143.15957031 112.23882812 143.85351562 112.94140625 C150.02170164 119.13910512 156.50786405 124.88353941 163.3125 130.375 C164.13363281 131.04273438 164.95476562 131.71046875 165.80078125 132.3984375 C170.6696942 135.94418228 176.04659977 135.18377285 181.8125 135.1875 C182.79798828 135.19974609 183.78347656 135.21199219 184.79882812 135.22460938 C189.93312322 135.23495382 194.19812414 135.06260542 199 133 C199.74903535 130.67649878 199.74903535 130.67649878 200 128 C199.02940531 126.08336982 199.02940531 126.08336982 197.30859375 124.44140625 C196.3338208 123.41104248 196.3338208 123.41104248 195.33935547 122.35986328 C194.56736816 121.5811084 193.79538086 120.80235352 193 120 C191.66219482 118.62497314 191.66219482 118.62497314 190.29736328 117.22216797 C187.77038384 114.63720954 185.2187027 112.07808511 182.6574707 109.52709961 C181.06541034 107.94040054 179.4787701 106.34842258 177.89257812 104.75585938 C173.04984978 99.91029399 168.16058958 95.18683599 162.95092773 90.73266602 C158.08980211 86.415383 153.6248043 81.65891031 149.06640625 77.02734375 C144.70681748 72.62536028 140.30612166 68.42090497 135.51367188 64.49023438 C134 63 134 63 133 60 C137.58362177 60.58162974 141.27432187 61.81889456 145.47265625 63.73046875 C146.07702011 64.00337234 146.68138397 64.27627594 147.30406189 64.55744934 C149.22661896 65.42753209 151.14454085 66.30733569 153.0625 67.1875 C154.32197507 67.75910418 155.58173886 68.33007265 156.84179688 68.90039062 C162.90674982 71.65056685 168.95334474 74.43967094 174.99609375 77.23828125 C181.251589 80.12796511 187.55348461 82.82845977 193.94726562 85.39624023 C201.28694257 88.35871141 208.36855509 91.57607286 215.4140625 95.1875 C219.35605957 97.20137023 223.36259399 99.06894425 227.375 100.9375 C239.18151354 106.46344344 250.81074442 112.19206674 262.10791016 118.70581055 C265.38273545 120.58149581 268.66195231 122.35110466 272.08203125 123.94921875 C272.73091309 124.254646 273.37979492 124.56007324 274.04833984 124.87475586 C275.82565743 125.69818356 277.61370417 126.49833918 279.40234375 127.296875 C282 129 282 129 283.08984375 131.3515625 C282.660583 144.00542299 263.89726937 159.75063757 255.109375 168.27734375 C249.2005465 173.79158558 242.63295504 178.32652368 235.890625 182.75439453 C234.22357254 183.85270311 232.57864334 184.98443452 230.9375 186.12109375 C225.30418092 189.92849691 219.65747892 192.51022086 213.265625 194.8125 C210.05992484 195.97820915 206.94472711 197.27573294 203.8125 198.625 C178.10593437 209.40081398 146.95599214 210.24374788 120 204 C119.29568848 203.8448291 118.59137695 203.6896582 117.86572266 203.52978516 C109.60912002 201.6976822 101.75625648 199.41038453 94 196 C92.87722656 195.54625 91.75445312 195.0925 90.59765625 194.625 C84.27015691 192.03187327 78.55436915 189.33083029 72.9921875 185.34765625 C71.11154285 184.07545546 69.32959363 183.20560349 67.25 182.3125 C61.30060199 179.46816629 56.49111802 174.74243618 51.58984375 170.40625 C50.13067216 169.11558226 48.65964071 167.83835528 47.1875 166.5625 C37.22244834 157.81269855 29.66403695 147.74431975 22 137 C21.39671875 136.15953125 20.7934375 135.3190625 20.171875 134.453125 C16.12804949 128.62150295 13.08389966 122.37806521 10 116 C9.29309025 114.64508964 8.58494079 113.29082463 7.875 111.9375 C5.9453606 108.07028029 4.48204044 104.08426361 3.06640625 100.00390625 C2.35270677 97.99352199 1.5888187 96.00029084 0.77734375 94.02734375 C-8.41237397 70.89848234 -8.05423948 45.98744174 -6.25 21.5625 C-6.1886084 20.645896 -6.1272168 19.72929199 -6.06396484 18.78491211 C-5.5315132 12.78849245 -4.46770295 4.46770295 0 0 Z " fill="#01BBFC" transform="translate(86,222)"/>
<path d="M0 0 C1.32 0 2.64 0 4 0 C3.98428955 1.21357178 3.9685791 2.42714355 3.95239258 3.67749023 C3.89729085 8.26417157 3.86336411 12.85082497 3.83520508 17.43774414 C3.82029835 19.40719554 3.79996586 21.37661485 3.77368164 23.34594727 C3.55335949 40.30211292 5.03888943 55.85315355 10.64453125 71.98828125 C11.55922549 74.65814678 12.40390046 77.33523891 13.19921875 80.04296875 C18.33715275 96.82078883 28.3037231 112.01818635 40 125 C41.18142578 126.37671875 41.18142578 126.37671875 42.38671875 127.78125 C50.71132088 137.295081 60.58991628 146.29495814 72 152 C72 152.66 72 153.32 72 154 C72.53238281 154.09925781 73.06476563 154.19851563 73.61328125 154.30078125 C76.71458112 155.20934537 79.33294223 156.67153907 82.1875 158.1875 C109.72571203 172.2220258 144.70424129 176.27135309 174.5 167.25 C175.41217285 166.97978027 176.3243457 166.70956055 177.26416016 166.43115234 C184.05218609 164.37867752 190.60727884 162.09184743 197 159 C198.15242187 158.44957031 199.30484375 157.89914062 200.4921875 157.33203125 C209.91247871 152.6546422 218.10342558 146.74479049 226.31518555 140.20166016 C228 139 228 139 230.14379883 137.97021484 C232.52249421 136.72689833 232.856481 135.3632726 234 133 C234.99 132.67 235.98 132.34 237 132 C235.55465158 136.76788715 232.72760633 139.7751721 229.25 143.1875 C228.67290283 143.75557373 228.09580566 144.32364746 227.5012207 144.90893555 C217.52722355 154.49543625 206.43132581 161.34751415 193.90673828 167.11376953 C192.15129547 167.92967957 190.41624104 168.78908132 188.68359375 169.65234375 C161.56188383 182.47885638 128.51234462 182.54590334 100.25 173.625 C99.28707031 173.33367187 98.32414062 173.04234375 97.33203125 172.7421875 C91.33875338 170.8880934 85.67911596 168.65511539 80 166 C79.06414062 165.60039062 78.12828125 165.20078125 77.1640625 164.7890625 C50.97997851 152.78466707 28.52810762 129.17948354 15 104 C14.45085937 103.00484375 13.90171875 102.0096875 13.3359375 100.984375 C0.47103122 76.61472874 -3.16298816 51.83609594 -3.24023438 24.58105469 C-3.25012702 22.47293247 -3.28140138 20.36571585 -3.3125 18.2578125 C-3.31901724 16.89063061 -3.3242727 15.52344199 -3.328125 14.15625 C-3.3374707 12.94775391 -3.34681641 11.73925781 -3.35644531 10.49414062 C-2.9380154 6.39238109 -1.78849716 3.69032483 0 0 Z " fill="#102632" transform="translate(99,235)"/>
<path d="M0 0 C1.92199219 0.01341431 1.92199219 0.01341431 3.8828125 0.02709961 C38.50271339 0.44849472 66.47521479 11.86206664 92.9375 34.25 C93.58460938 34.76175781 94.23171875 35.27351563 94.8984375 35.80078125 C100.05805311 39.94481641 103.94414996 45.0015971 107.9375 50.25 C107.6075 50.91 107.2775 51.57 106.9375 52.25 C106.11507812 51.46496094 105.29265625 50.67992187 104.4453125 49.87109375 C97.94791665 43.72988044 91.49488667 38.07705033 83.9375 33.25 C82.98875 32.61707031 82.04 31.98414063 81.0625 31.33203125 C67.83576371 22.78425292 53.15703369 16.45076359 37.875 12.625 C36.46541016 12.26535156 36.46541016 12.26535156 35.02734375 11.8984375 C28.63277784 10.55646792 22.33128476 10.08652633 15.80859375 10.046875 C15.05643082 10.04117493 14.30426788 10.03547485 13.52931213 10.02960205 C11.94525529 10.02021808 10.3611795 10.01364461 8.77709961 10.00976562 C6.40507076 10.00012225 4.03393348 9.96906186 1.66210938 9.9375 C-12.39997575 9.84022228 -24.9378244 11.9786139 -38.0625 17.25 C-39.78726563 17.88035156 -39.78726563 17.88035156 -41.546875 18.5234375 C-75.31062146 31.03804834 -97.88764471 56.20694473 -116.0625 86.25 C-116.7225 85.92 -117.3825 85.59 -118.0625 85.25 C-118.81999054 72.22445608 -108.824886 60.06897938 -101.0625 50.25 C-99.33710612 48.34480556 -97.57836372 46.56370262 -95.6953125 44.81640625 C-93.89280993 43.0872112 -92.34318361 41.23543557 -90.75 39.3125 C-83.03322908 30.43479894 -72.96053706 24.39203453 -63.0625 18.25 C-62.16144531 17.68023437 -61.26039063 17.11046875 -60.33203125 16.5234375 C-51.82268612 11.24737295 -43.14229595 7.42275791 -33.5625 4.5625 C-32.88695068 4.36003662 -32.21140137 4.15757324 -31.51538086 3.94897461 C-20.98416903 0.93521138 -10.94892293 -0.08599009 0 0 Z " fill="#132330" transform="translate(232.0625,99.75)"/>
<path d="M0 0 C22.13827276 1.06434004 44.76280301 10.46695728 64 21 C64 21.66 64 22.32 64 23 C64.73089844 23.26683594 65.46179688 23.53367187 66.21484375 23.80859375 C70.94362273 25.83142347 74.85415361 28.99120009 79 32 C79.88558594 32.60328125 80.77117187 33.2065625 81.68359375 33.828125 C106.83059349 51.54612204 126.0102542 78.11502771 137.5625 106.4375 C137.99852539 107.48647461 137.99852539 107.48647461 138.44335938 108.55664062 C142.00627069 117.23675342 144.51956833 125.68379185 146.125 134.9375 C146.29386719 135.86240234 146.46273437 136.78730469 146.63671875 137.74023438 C150.841316 161.3621252 151.5249461 187.7901387 145 211 C144.62154847 212.45941594 144.24394505 213.91905208 143.8671875 215.37890625 C141.85612535 222.88220193 139.29903458 230.11778519 136.375 237.3125 C136.08584717 238.0243042 135.79669434 238.7361084 135.4987793 239.46948242 C134.01489766 242.99236994 132.47992473 246.07669479 130 249 C128.89433007 246.21584319 128.9715671 245.08298707 129.9609375 242.1953125 C130.42757812 241.18210937 130.89421875 240.16890625 131.375 239.125 C133.24432661 235.04172233 134.4270776 231.46346518 135 227 C133.35 227 131.7 227 130 227 C133 225 133 225 135 224.8125 C137.3550985 224.09766646 137.3550985 224.09766646 138.6875 221 C140.31656459 216.74141268 140.65192742 212.52494351 141 208 C136.05 207.67 131.1 207.34 126 207 C126 206.67 126 206.34 126 206 C127.04800781 205.98582031 128.09601563 205.97164062 129.17578125 205.95703125 C130.55473142 205.91012818 131.93363633 205.86188079 133.3125 205.8125 C134.34793945 205.80379883 134.34793945 205.80379883 135.40429688 205.79492188 C137.7016326 205.74609542 137.7016326 205.74609542 141 205 C144.10360308 201.54599012 144.43836788 198.22170464 144.6875 193.6875 C144.78611328 192.08455078 144.78611328 192.08455078 144.88671875 190.44921875 C144.92410156 189.64097656 144.96148437 188.83273437 145 188 C142.03 187.67 139.06 187.34 136 187 C136 186.67 136 186.34 136 186 C139.07617188 185.70703125 139.07617188 185.70703125 142.15234375 185.4140625 C142.76207031 185.27742187 143.37179687 185.14078125 144 185 C145.35281371 182.29437257 145.20609362 180.08106345 145.25 177.0625 C145.27578125 176.00160156 145.3015625 174.94070313 145.328125 173.84765625 C145.23925159 171.00804709 145.23925159 171.00804709 143.65234375 169.1640625 C141.50957993 167.65450312 139.572347 167.34761446 137 167 C139 166 141 165 143 164 C143 159.05 143 154.1 143 149 C139.04 148.01 139.04 148.01 135 147 C137.64738916 145.5393715 138.89448334 145 142 145 C141.69262339 142.52009745 141.37935917 140.04119265 141.0625 137.5625 C140.97548828 136.85544922 140.88847656 136.14839844 140.79882812 135.41992188 C140.61783809 131.91182032 140.61783809 131.91182032 139 129 C137.31816052 128.76712992 135.6287584 128.58735834 133.9375 128.4375 C133.01839844 128.35371094 132.09929687 128.26992187 131.15234375 128.18359375 C130.44207031 128.12300781 129.73179687 128.06242188 129 128 C129 127.34 129 126.68 129 126 C131.64 125.67 134.28 125.34 137 125 C136.11152149 116.34682751 136.11152149 116.34682751 132 109 C130.36743242 108.84285346 128.72864662 108.74914586 127.08984375 108.68359375 C126.10048828 108.64169922 125.11113281 108.59980469 124.09179688 108.55664062 C123.05087891 108.51732422 122.00996094 108.47800781 120.9375 108.4375 C119.37032227 108.37272461 119.37032227 108.37272461 117.77148438 108.30664062 C115.18113116 108.20018775 112.59067814 108.0981724 110 108 C110 107.67 110 107.34 110 107 C110.96421875 106.95101562 111.9284375 106.90203125 112.921875 106.8515625 C114.81679688 106.73941406 114.81679688 106.73941406 116.75 106.625 C118.62945312 106.52058594 118.62945312 106.52058594 120.546875 106.4140625 C123.60998121 106.04676696 125.41974266 105.60288714 128 104 C127.43805982 98.49298626 126.28859808 95.34006219 124 90 C110.14 89.01 110.14 89.01 96 88 C96 87.67 96 87.34 96 87 C103.92 87 111.84 87 120 87 C120.05162371 80.66676805 120.05162371 80.66676805 116.5625 76.1875 C115.60537109 75.03314453 115.60537109 75.03314453 114.62890625 73.85546875 C112.82812148 71.51603494 112.82812148 71.51603494 110.23413086 70.79467773 C109.48526611 70.75802002 108.73640137 70.7213623 107.96484375 70.68359375 C107.15595703 70.64169922 106.34707031 70.59980469 105.51367188 70.55664062 C104.66353516 70.51732422 103.81339844 70.47800781 102.9375 70.4375 C101.65649414 70.37272461 101.65649414 70.37272461 100.34960938 70.30664062 C98.23327963 70.20023298 96.11666187 70.09958269 94 70 C94 69.67 94 69.34 94 69 C98.62 68.34 103.24 67.68 108 67 C106.99194386 62.96777544 106.25737723 61.82199672 103.5625 58.875 C102.94503906 58.19179687 102.32757813 57.50859375 101.69140625 56.8046875 C98.08084954 52.95231522 96.18173416 52.55040253 90.875 51.875 C89.59367187 51.70742187 88.31234375 51.53984375 86.9921875 51.3671875 C86.00476563 51.24601562 85.01734375 51.12484375 84 51 C84 50.67 84 50.34 84 50 C88.95 49.505 88.95 49.505 94 49 C92.060572 46.575715 90.10129196 44.27905853 88 42 C87.47792969 41.41734375 86.95585937 40.8346875 86.41796875 40.234375 C79.91210222 34.18377227 71.38454954 35.01905579 63 35 C63 34.67 63 34.34 63 34 C65.97 33.34 68.94 32.68 72 32 C72 31.34 72 30.68 72 30 C63.85092757 23.59811004 56.39903189 20.68078768 46 20 C47.32 19.01 48.64 18.02 50 17 C47.12882484 15.84441727 44.25246071 14.70233133 41.375 13.5625 C40.56675781 13.23701172 39.75851562 12.91152344 38.92578125 12.57617188 C34.61850786 10.87777546 30.63678449 9.53270501 26 9 C26 8.34 26 7.68 26 7 C24.7934375 6.73445313 23.586875 6.46890625 22.34375 6.1953125 C20.72915391 5.83859941 19.11457129 5.48182532 17.5 5.125 C16.31277344 4.86396484 16.31277344 4.86396484 15.1015625 4.59765625 C10.04529067 3.47864527 5.01857819 2.27766555 0 1 C0 0.67 0 0.34 0 0 Z " fill="#12B3E0" transform="translate(284,85)"/>
<path d="M0 0 C15.48606597 -0.55861561 25.58871598 1.9566956 38 11 C37.67 11.99 37.34 12.98 37 14 C36.01 14.33 35.02 14.66 34 15 C39.445 15.495 39.445 15.495 45 16 C45 16.33 45 16.66 45 17 C16.55371901 17 16.55371901 17 10 12.125 C8.75018307 11.2106872 7.50018928 10.2966161 6.25 9.3828125 C5.69828125 8.97434082 5.1465625 8.56586914 4.578125 8.14501953 C3.07957884 7.05773898 1.54048884 6.02699256 0 5 C-0.1875 2.375 -0.1875 2.375 0 0 Z " fill="#142834" transform="translate(319,104)"/>
<path d="M0 0 C0.66 0 1.32 0 2 0 C2.79813668 2.7691078 3.5885573 5.54006858 4.375 8.3125 C4.59671875 9.07884766 4.8184375 9.84519531 5.046875 10.63476562 C7.79098394 20.36021056 9.30962178 29.69866251 9.23046875 39.8125 C9.22978142 41.27671387 9.22978142 41.27671387 9.2290802 42.77050781 C9.22608554 44.81072218 9.21828424 46.85093485 9.20581055 48.89111328 C9.18738257 52.01993844 9.18530247 55.14846958 9.18554688 58.27734375 C9.18063686 60.26823173 9.1748108 62.25911772 9.16796875 64.25 C9.16685593 65.18432861 9.1657431 66.11865723 9.16459656 67.08129883 C9.15821671 67.94650146 9.15183685 68.8117041 9.14526367 69.703125 C9.14145187 70.46270508 9.13764008 71.22228516 9.13371277 72.00488281 C9 74 9 74 8 77 C7.87213347 78.79013136 7.77160886 80.58227977 7.6875 82.375 C6.98166507 91.45159608 5.10599549 100.04914979 -1 107 C0.3086988 99.59430446 1.76098857 92.2291059 3.31640625 84.87109375 C4.98621292 75.41521713 5.22736028 66.02720732 5.25 56.4375 C5.25167175 55.76380371 5.25334351 55.09010742 5.25506592 54.39599609 C5.25689042 42.00981296 4.18645855 29.92583558 2.38916016 17.66455078 C1.91659624 14.42894063 1.49363268 11.18809287 1.07373047 7.9453125 C0.72891442 5.29506276 0.36590234 2.64741102 0 0 Z " fill="#14343D" transform="translate(370,207)"/>
<path d="M0 0 C22.13827276 1.06434004 44.76280301 10.46695728 64 21 C64 21.66 64 22.32 64 23 C64.72316406 23.26167969 65.44632812 23.52335937 66.19140625 23.79296875 C73.18507694 26.79859357 79.28316231 32.03537779 85 37 C84.505 37.99 84.505 37.99 84 39 C83.52046875 38.51917969 83.0409375 38.03835937 82.546875 37.54296875 C78.8724167 35.31687822 75.4733624 35.43506856 71.25 35.3125 C70.45722656 35.27833984 69.66445313 35.24417969 68.84765625 35.20898438 C66.89892496 35.12680896 64.94948638 35.06171955 63 35 C63 34.67 63 34.34 63 34 C65.97 33.34 68.94 32.68 72 32 C72 31.34 72 30.68 72 30 C63.85092757 23.59811004 56.39903189 20.68078768 46 20 C47.32 19.01 48.64 18.02 50 17 C47.12882484 15.84441727 44.25246071 14.70233133 41.375 13.5625 C40.56675781 13.23701172 39.75851562 12.91152344 38.92578125 12.57617188 C34.61850786 10.87777546 30.63678449 9.53270501 26 9 C26 8.34 26 7.68 26 7 C24.7934375 6.73445313 23.586875 6.46890625 22.34375 6.1953125 C20.72915391 5.83859941 19.11457129 5.48182532 17.5 5.125 C16.31277344 4.86396484 16.31277344 4.86396484 15.1015625 4.59765625 C10.04529067 3.47864527 5.01857819 2.27766555 0 1 C0 0.67 0 0.34 0 0 Z " fill="#0EB8E5" transform="translate(284,85)"/>
<path d="M0 0 C-0.57796572 5.51526861 -1.53437285 10.62930306 -3.125 15.9375 C-3.33946777 16.65897217 -3.55393555 17.38044434 -3.77490234 18.1237793 C-5.4653644 23.62759542 -7.44928004 28.98308495 -9.625 34.3125 C-9.91391113 35.0233374 -10.20282227 35.7341748 -10.50048828 36.46655273 C-11.98403771 39.99072738 -13.51939761 43.07589597 -16 46 C-17.10566993 43.21584319 -17.0284329 42.08298707 -16.0390625 39.1953125 C-15.57242187 38.18210937 -15.10578125 37.16890625 -14.625 36.125 C-12.75567339 32.04172233 -11.5729224 28.46346518 -11 24 C-12.65 24 -14.3 24 -16 24 C-13 22 -13 22 -11 21.8125 C-8.6449015 21.09766646 -8.6449015 21.09766646 -7.3125 18 C-5.68343541 13.74141268 -5.34807258 9.52494351 -5 5 C-9.95 4.67 -14.9 4.34 -20 4 C-20 3.67 -20 3.34 -20 3 C-18.95199219 2.95101563 -17.90398437 2.90203125 -16.82421875 2.8515625 C-15.44528646 2.77651857 -14.0663815 2.70097143 -12.6875 2.625 C-11.99720703 2.5940625 -11.30691406 2.563125 -10.59570312 2.53125 C-6.59686462 2.29943328 -3.58761911 0 0 0 Z " fill="#1CADCC" transform="translate(430,288)"/>
<path d="M0 0 C0.89203125 0.01804687 1.7840625 0.03609375 2.703125 0.0546875 C3.71632813 0.08949219 3.71632813 0.08949219 4.75 0.125 C5.27969774 3.74571875 4.82893419 5.01002072 2.72265625 8.078125 C1.76737031 9.18994299 0.79604718 10.28810285 -0.1875 11.375 C-0.71093994 11.96837158 -1.23437988 12.56174316 -1.77368164 13.1730957 C-6.42357038 18.36679974 -11.28368723 23.35936803 -16.1875 28.3125 C-17.26922485 29.40836426 -17.26922485 29.40836426 -18.37280273 30.52636719 C-25.02374751 37.1361753 -25.02374751 37.1361753 -29.25 39.125 C-32.26053413 38.85131508 -34.57723827 37.47527256 -37.25 36.125 C-36.63253906 36.06183594 -36.01507813 35.99867188 -35.37890625 35.93359375 C-28.14979315 34.8882882 -23.49379367 32.18962077 -18.25 27.125 C-17.92 26.465 -17.59 25.805 -17.25 25.125 C-16.59 25.125 -15.93 25.125 -15.25 25.125 C-15.25 23.805 -15.25 22.485 -15.25 21.125 C-17.23 20.795 -19.21 20.465 -21.25 20.125 C-21.25 19.795 -21.25 19.465 -21.25 19.125 C-20.4765625 19.08503906 -19.703125 19.04507812 -18.90625 19.00390625 C-12.76346836 18.3881076 -8.90722905 17.56796969 -4.6875 12.875 C-2.04209515 9.47062245 0.11471378 6.11101017 1.75 2.125 C-1.88 2.125 -5.51 2.125 -9.25 2.125 C-5.38209997 0.19104999 -4.0999541 -0.10789353 0 0 Z " fill="#1CAFC7" transform="translate(392.25,361.875)"/>
<path d="M0 0 C0.99 0.66 1.98 1.32 3 2 C-6.31585856 8.33019049 -15.6661295 13.53591055 -26 18 C-26.6796582 18.30180176 -27.35931641 18.60360352 -28.05957031 18.91455078 C-38.94174447 23.73957046 -50.91345854 29 -63 29 C-63 28.34 -63 27.68 -63 27 C-62.38181396 26.84966309 -61.76362793 26.69932617 -61.12670898 26.54443359 C-49.68021299 23.73353537 -38.58111469 20.83030799 -27.765625 16.1015625 C-25 15 -25 15 -22 15 C-22 14.34 -22 13.68 -22 13 C-22.99 12.67 -23.98 12.34 -25 12 C-24.26136719 11.86464844 -23.52273438 11.72929687 -22.76171875 11.58984375 C-15.53716805 10.05680694 -10.22867022 7.66006915 -4.1796875 3.42578125 C-2 2 -2 2 0 2 C0 1.34 0 0.68 0 0 Z " fill="#114D4C" transform="translate(359,400)"/>
<path d="M0 0 C13.62095863 0.65485378 26.20775087 4.9037248 38.875 9.625 C39.93992676 10.02138672 41.00485352 10.41777344 42.10205078 10.82617188 C49.74055504 13.74055504 49.74055504 13.74055504 52 16 C50 17 50 17 48.21582031 16.48681641 C47.51038086 16.19468262 46.80494141 15.90254883 46.078125 15.6015625 C44.91023438 15.12976563 44.91023438 15.12976563 43.71875 14.6484375 C42.9040625 14.31070313 42.089375 13.97296875 41.25 13.625 C36.17706938 11.53037058 31.50579164 9.62162164 26 9 C26 8.34 26 7.68 26 7 C24.7934375 6.73445313 23.586875 6.46890625 22.34375 6.1953125 C20.72915391 5.83859941 19.11457129 5.48182532 17.5 5.125 C16.31277344 4.86396484 16.31277344 4.86396484 15.1015625 4.59765625 C10.04529067 3.47864527 5.01857819 2.27766555 0 1 C0 0.67 0 0.34 0 0 Z " fill="#299DA2" transform="translate(284,85)"/>
<path d="M0 0 C-0.47401451 6.56096269 -2.27016257 11.57773684 -5.0625 17.5 C-5.43955078 18.32242187 -5.81660156 19.14484375 -6.20507812 19.9921875 C-7.1270486 21.99951562 -8.05872543 24.00167056 -9 26 C-10.05395508 24.17529297 -10.05395508 24.17529297 -11 22 C-10.13671875 19.1953125 -10.13671875 19.1953125 -8.6875 16.125 C-6.77818767 12.03436371 -5.56953069 8.48924189 -5 4 C-6.65 4 -8.3 4 -10 4 C-7.10479625 2.06986417 -3.61773326 0 0 0 Z " fill="#11B9E7" transform="translate(424,308)"/>
<path d="M0 0 C0.66 0 1.32 0 2 0 C2.84480235 2.85120792 3.67601416 5.70527344 4.5 8.5625 C4.73847656 9.36236328 4.97695313 10.16222656 5.22265625 10.98632812 C6.60740344 15.83294329 7.27056929 19.960647 7 25 C6.34 25 5.68 25 5 25 C4.67 26.32 4.34 27.64 4 29 C2.68 19.43 1.36 9.86 0 0 Z " fill="#14313B" transform="translate(370,207)"/>
<path d="M0 0 C0.33 0.99 0.66 1.98 1 3 C1.66 3 2.32 3 3 3 C2.22686796 11.34982601 1.03713731 19.75468554 -5 26 C-3.46362677 17.30593504 -1.75157349 8.65277306 0 0 Z " fill="#0E2732" transform="translate(374,288)"/>
<path d="M0 0 C0.66 0.99 1.32 1.98 2 3 C0.11036105 4.94388696 -1.78623935 6.8800346 -3.6875 8.8125 C-4.21794922 9.35970703 -4.74839844 9.90691406 -5.29492188 10.47070312 C-8.30204294 13.51472138 -11.11462359 16.08448226 -15 18 C-18.01053413 17.72631508 -20.32723827 16.35027256 -23 15 C-22.38253906 14.93683594 -21.76507813 14.87367188 -21.12890625 14.80859375 C-13.89979315 13.7632882 -9.24379367 11.06462077 -4 6 C-3.67 5.34 -3.34 4.68 -3 4 C-2.34 4 -1.68 4 -1 4 C-0.67 2.68 -0.34 1.36 0 0 Z " fill="#1A9D9C" transform="translate(378,383)"/>
<path d="M0 0 C4.47238653 1.41807378 8.71146306 3.11304374 13 5 C13 5.66 13 6.32 13 7 C14.32 7.66 15.64 8.32 17 9 C16.67 9.66 16.34 10.32 16 11 C14.4221875 9.824375 14.4221875 9.824375 12.8125 8.625 C7.3134737 5.12742111 1.37094313 4.65069084 -5 4 C-2 2 -2 2 0 2 C0 1.34 0 0.68 0 0 Z " fill="#1BB1CF" transform="translate(335,101)"/>
<path d="M0 0 C0.99 0.66 1.98 1.32 3 2 C0.79411638 3.44137875 -1.41454997 4.87815365 -3.625 6.3125 C-4.24246094 6.71662109 -4.85992187 7.12074219 -5.49609375 7.53710938 C-15.47942073 14 -15.47942073 14 -21 14 C-21 13.01 -21 12.02 -21 11 C-20.07380859 10.77957031 -20.07380859 10.77957031 -19.12890625 10.5546875 C-13.21137027 8.98748619 -8.74808082 6.82939503 -3.8125 3.20703125 C-2 2 -2 2 0 2 C0 1.34 0 0.68 0 0 Z " fill="#0E635C" transform="translate(359,400)"/>
<path d="M0 0 C0.66 0 1.32 0 2 0 C0.57699887 4.68904588 -2.15696334 7.51610475 -5.625 10.8125 C-6.140625 11.31458984 -6.65625 11.81667969 -7.1875 12.33398438 C-8.45159154 13.56296227 -9.72488806 14.78246001 -11 16 C-11.66 15.34 -12.32 14.68 -13 14 C-11.4114658 9.71095765 -8.56872632 7.67654474 -5 5 C-4.34 5 -3.68 5 -3 5 C-2.690625 4.360625 -2.38125 3.72125 -2.0625 3.0625 C-1 1 -1 1 0 0 Z " fill="#10353D" transform="translate(334,367)"/>
<path d="M0 0 C0 0.66 0 1.32 0 2 C3.3 2 6.6 2 10 2 C10 2.33 10 2.66 10 3 C6.45835085 3.0292067 2.91673303 3.04686814 -0.625 3.0625 C-2.12353516 3.07506836 -2.12353516 3.07506836 -3.65234375 3.08789062 C-8.55020275 3.1041087 -13.18656199 3.04318537 -18 2 C-18 1.67 -18 1.34 -18 1 C-11.96445452 0.30739642 -6.07593562 -0.11251733 0 0 Z " fill="#1C5455" transform="translate(413,211)"/>
<path d="M0 0 C0.33 0.99 0.66 1.98 1 3 C-1.58361518 3.05407567 -4.16609255 3.093707 -6.75 3.125 C-7.47960937 3.14175781 -8.20921875 3.15851563 -8.9609375 3.17578125 C-12.8044624 3.21072239 -15.74606772 3.17499684 -19 1 C-12.61773055 0.17648136 -6.43255401 -0.12086218 0 0 Z " fill="#205A5D" transform="translate(425,250)"/>
<path d="M0 0 C-1.04874998 2.62187494 -1.64931313 3.79371361 -4.125 5.25 C-4.74375 5.4975 -5.3625 5.745 -6 6 C-6 5.34 -6 4.68 -6 4 C-8.64 3.67 -11.28 3.34 -14 3 C-14 2.67 -14 2.34 -14 2 C-12.04200486 1.66468585 -10.08359226 1.33180857 -8.125 1 C-6.48917969 0.7215625 -6.48917969 0.7215625 -4.8203125 0.4375 C-2 0 -2 0 0 0 Z " fill="#10B8DF" transform="translate(385,379)"/>
<path d="M0 0 C1.305239 3.91571701 0.32239848 5.03892997 -1.4375 8.6875 C-1.91058594 9.68136719 -2.38367188 10.67523438 -2.87109375 11.69921875 C-3.42990234 12.83810547 -3.42990234 12.83810547 -4 14 C-5.109375 12.29296875 -5.109375 12.29296875 -6 10 C-5.390625 7.67578125 -5.390625 7.67578125 -4.25 5.3125 C-3.88390625 4.52488281 -3.5178125 3.73726563 -3.140625 2.92578125 C-2 1 -2 1 0 0 Z " fill="#1EB1D1" transform="translate(419,320)"/>
<path d="M0 0 C0.99 0.33 1.98 0.66 3 1 C2.39254603 5.85963179 0.27241033 9.7405518 -2 14 C-3.21065165 10.36804504 -2.62784815 8.93468371 -1.5625 5.3125 C-1.27503906 4.31863281 -0.98757813 3.32476562 -0.69140625 2.30078125 C-0.46324219 1.54152344 -0.23507812 0.78226562 0 0 Z " fill="#196562" transform="translate(372,300)"/>
<path d="M0 0 C1.485 0.99 1.485 0.99 3 2 C2.67 5.63 2.34 9.26 2 13 C1.34 13 0.68 13 0 13 C0 8.71 0 4.42 0 0 Z " fill="#0C2731" transform="translate(375,278)"/>
<path d="M0 0 C0.66 0 1.32 0 2 0 C3.66251802 5.57432514 4.18609365 9.3067505 3 15 C2.67 15 2.34 15 2 15 C1.34 10.05 0.68 5.1 0 0 Z " fill="#206766" transform="translate(370,207)"/>
<path d="M0 0 C0.33 0.99 0.66 1.98 1 3 C-3.05431692 4.15837626 -5.21812119 3.83691257 -9 2 C-9 1.67 -9 1.34 -9 1 C-5.94152152 0.45627049 -3.11227195 0 0 0 Z " fill="#159A8C" transform="translate(364,397)"/>
<path d="M0 0 C0.66 0 1.32 0 2 0 C0.75023244 3.65316671 0.32901247 4.78065836 -3 7 C-3.66 6.34 -4.32 5.68 -5 5 C-4.34 5 -3.68 5 -3 5 C-2.5359375 4.0409375 -2.5359375 4.0409375 -2.0625 3.0625 C-1 1 -1 1 0 0 Z " fill="#146F6A" transform="translate(334,367)"/>
<path d="M0 0 C0.33 0.99 0.66 1.98 1 3 C1.66 3 2.32 3 3 3 C3 4.65 3 6.3 3 8 C2.34 7.34 1.68 6.68 1 6 C0.34 6.66 -0.32 7.32 -1 8 C-0.67 5.36 -0.34 2.72 0 0 Z " fill="#1F6364" transform="translate(374,288)"/>
</svg>
